<svg width="24" height="24" viewBox="0 0 24 24" fill="none" xmlns="http://www.w3.org/2000/svg">
<g clip-path="url(#clip0_442_2395)">
<path d="M11.9998 10.036C12.5231 10.0339 13.0243 9.82421 13.3933 9.453C13.7622 9.08179 13.9688 8.57937 13.9678 8.05599C13.9677 7.65941 13.8498 7.2718 13.629 6.9424C13.4081 6.613 13.0943 6.35669 12.7275 6.20605C12.3606 6.05541 11.9573 6.01723 11.5687 6.09636C11.1801 6.1755 10.8238 6.36838 10.5451 6.65049C10.2663 6.9326 10.0778 7.2912 10.0033 7.68073C9.92888 8.07026 9.97193 8.47313 10.127 8.83814C10.2821 9.20314 10.5421 9.51381 10.8742 9.73066C11.2062 9.94751 11.5952 10.0608 11.9918 10.056L11.9998 10.036Z" fill="#161817"/>
<path d="M12 0C9.62663 0 7.30655 0.703788 5.33316 2.02236C3.35977 3.34094 1.8217 5.21509 0.913451 7.4078C0.00519943 9.60051 -0.232441 12.0133 0.230582 14.3411C0.693605 16.6689 1.83649 18.8071 3.51472 20.4853C5.19295 22.1635 7.33115 23.3064 9.65892 23.7694C11.9867 24.2324 14.3995 23.9948 16.5922 23.0866C18.7849 22.1783 20.6591 20.6402 21.9776 18.6668C23.2962 16.6935 24 14.3734 24 12C24 8.8174 22.7357 5.76515 20.4853 3.51472C18.2349 1.26428 15.1826 0 12 0ZM12 4C12.5331 4.00209 13.0606 4.10937 13.5522 4.3157C14.0438 4.52202 14.4899 4.82332 14.8648 5.20235C15.2397 5.58137 15.5362 6.03066 15.7372 6.52446C15.9381 7.01826 16.0397 7.54688 16.036 8.08V8.104C16.025 8.90265 15.7779 9.68018 15.3259 10.3387C14.8739 10.9973 14.2372 11.5074 13.4959 11.8048C12.7546 12.1023 11.9419 12.1738 11.1601 12.0103C10.3783 11.8469 9.66226 11.4558 9.10221 10.8863C8.54217 10.3169 8.16311 9.59442 8.01276 8.80997C7.86241 8.02552 7.94748 7.21412 8.25728 6.47792C8.56708 5.74172 9.08774 5.11362 9.75374 4.67269C10.4197 4.23176 11.2013 3.99771 12 4ZM16.532 13.68C16.0434 14.1802 15.4526 14.569 14.8 14.82C14.1547 15.0518 13.4827 15.201 12.8 15.264C12.904 15.376 12.952 15.432 13.008 15.496C13.932 16.424 14.852 17.34 15.772 18.272C15.9216 18.4015 16.0248 18.5762 16.066 18.7697C16.1071 18.9632 16.084 19.1649 16 19.344C15.9115 19.5384 15.7674 19.7022 15.5859 19.8147C15.4043 19.9272 15.1935 19.9833 14.98 19.976C14.729 19.9561 14.4954 19.8401 14.328 19.652C13.632 18.952 12.924 18.268 12.244 17.548C12.044 17.34 11.952 17.38 11.776 17.548C11.0773 18.268 10.3693 18.9787 9.65201 19.68C9.5209 19.8277 9.3441 19.9273 9.1498 19.9628C8.9555 19.9984 8.7549 19.9678 8.58001 19.876C8.3888 19.7878 8.22731 19.6459 8.11512 19.4677C8.00294 19.2895 7.94489 19.0826 7.94801 18.872C7.9684 18.6128 8.08892 18.3718 8.28401 18.2L11.016 15.468C11.0957 15.4117 11.1671 15.3443 11.228 15.268C10.0311 15.1971 8.88054 14.7802 7.91601 14.068C7.79601 13.976 7.67601 13.88 7.56801 13.78C7.38678 13.6191 7.27071 13.3974 7.24172 13.1569C7.21272 12.9163 7.2728 12.6734 7.41061 12.474C7.54843 12.2747 7.75444 12.1327 7.98977 12.0748C8.22511 12.017 8.47348 12.0473 8.68801 12.16C8.7844 12.2069 8.87673 12.2618 8.96401 12.324C9.84648 12.9255 10.8867 13.2535 11.9545 13.267C13.0224 13.2805 14.0706 12.9789 14.968 12.4C15.1412 12.2627 15.3396 12.1608 15.552 12.1C15.7491 12.0419 15.9599 12.0517 16.1507 12.1279C16.3415 12.2041 16.5012 12.3422 16.604 12.52C16.7364 12.6893 16.8032 12.9006 16.7921 13.1152C16.7811 13.3298 16.693 13.5332 16.544 13.688L16.532 13.68Z" fill="#161817"/>
</g>
<defs>
<clipPath id="clip0_442_2395">
<rect width="24" height="24" fill="white"/>
</clipPath>
</defs>
</svg>
