<svg width="24" height="24" viewBox="0 0 24 24" fill="none" xmlns="http://www.w3.org/2000/svg">
<path d="M20.4 3.6C18.4 1.2 15.2 0 12 0C8.8 0 5.6 1.2 3.6 3.6C1.2 5.6 0 8.8 0 12C0 15.2 1.2 18.4 3.6 20.4C5.6 22.8 8.8 24 12 24C15.2 24 18.4 22.8 20.4 20.4C22.8 18.4 24 15.2 24 12C24 8.8 22.8 5.6 20.4 3.6ZM15.6 18C15.6 18.4 15.2 18.4 15.2 18.4L12 16C12 16 11.6 16 11.2 16L9.6 17.6C9.2 17.6 9.2 17.6 9.2 17.6L8 13.6L4.8 12.4C4.4 12.4 4.4 12 4.8 11.6L17.6 6.8C18 6.8 18 6.8 18 7.2L15.6 18Z" fill="#EF786F"/>
<path d="M8.79844 12.7993C8.39844 12.7993 8.39844 13.1993 8.39844 13.5993L9.19844 15.9993H9.59844V14.7993C9.59844 14.3993 9.59844 14.3993 9.99844 13.9993L15.1984 9.19926L8.79844 12.7993Z" fill="#EF786F"/>
</svg>
