<svg width="24" height="24" viewBox="0 0 24 24" fill="none" xmlns="http://www.w3.org/2000/svg">
<path d="M12 0C10.4241 -2.34822e-08 8.86373 0.310389 7.40783 0.913445C5.95192 1.5165 4.62904 2.40042 3.51474 3.51472C2.40044 4.62902 1.51653 5.95189 0.91347 7.4078C0.310414 8.86371 0 10.4241 0 12C0 13.5759 0.310414 15.1363 0.91347 16.5922C1.51653 18.0481 2.40044 19.371 3.51474 20.4853C4.62904 21.5996 5.95192 22.4835 7.40783 23.0866C8.86373 23.6896 10.4241 24 12 24C15.1825 24 18.2348 22.7357 20.4853 20.4853C22.7357 18.2348 24 15.1826 24 12C24 8.8174 22.7357 5.76516 20.4853 3.51472C18.2348 1.26428 15.1825 4.74244e-08 12 0ZM18.0963 13.3155C18.6417 13.861 19.2353 14.3743 19.7486 14.9679C19.9572 15.2406 20.1818 15.5134 20.3422 15.8342C20.5668 16.2674 20.3422 16.7647 19.9572 16.7968H17.5026C16.8609 16.8449 16.3636 16.5882 15.9304 16.1551L14.9519 15.0642C14.8235 14.9198 14.6791 14.7914 14.5026 14.6791C14.1818 14.4545 13.8769 14.5187 13.7005 14.8717C13.4919 15.2246 13.4438 15.6257 13.4278 16.0267C13.4117 16.6043 13.2353 16.7647 12.6417 16.7807C11.4222 16.8765 10.2012 16.6144 9.12833 16.0267C8.19583 15.4621 7.39232 14.7079 6.77 13.8128C5.48658 12.0802 4.52409 10.1872 3.64174 8.24599C3.44922 7.79679 3.59354 7.57219 4.07482 7.55615H6.48124C6.80209 7.55615 7.02676 7.74866 7.15511 8.05348C7.58826 9.12834 8.11759 10.139 8.77534 11.1016C8.96785 11.3422 9.14435 11.5829 9.40103 11.7594C9.6898 11.9679 9.8984 11.9037 10.0428 11.5829C10.123 11.3743 10.1551 11.1658 10.1712 10.9412C10.2353 10.2032 10.2513 9.46524 10.139 8.71123C10.0749 8.26203 9.81818 7.95722 9.3369 7.86096C9.1123 7.82888 9.1444 7.73262 9.2567 7.60428C9.46526 7.36364 9.64168 7.21925 10.0107 7.21925H12.8021C13.2352 7.31551 13.3315 7.50802 13.3957 7.95722V11.0374C13.3957 11.2139 13.476 11.7273 13.7808 11.8396C14.0375 11.9198 14.1978 11.7112 14.3422 11.5668C14.9781 10.8468 15.5026 10.0357 15.8983 9.16043C16.0908 8.7754 16.2513 8.37433 16.4117 7.97326C16.524 7.68449 16.7166 7.54011 17.0535 7.55615H19.9411C20.3903 7.63636 20.5187 7.84492 20.3743 8.27808C20.1497 8.96791 19.7326 9.5615 19.3154 10.123L17.9358 11.9679C17.5347 12.5294 17.5669 12.8182 18.0802 13.3155" fill="#EF786F"/>
</svg>
