<svg width="24" height="24" viewBox="0 0 24 24" fill="none" xmlns="http://www.w3.org/2000/svg">
<path d="M6.30469 12.8981H7.26731V18.0318H8.14965V12.8981H9.11217V12.0479H6.30469V12.8981Z" fill="#161817"/>
<path d="M13.9268 13.5238C13.622 13.5238 13.3493 13.6842 13.0766 14.0051V12.0479H12.2744V18.0479H13.0766V17.6147C13.3493 17.9356 13.638 18.096 13.9268 18.096C14.2476 18.096 14.4562 17.9356 14.5685 17.6147C14.6166 17.4062 14.6487 17.1174 14.6487 16.7003V14.9356C14.6487 14.5024 14.6166 14.1976 14.5685 14.0211C14.4562 13.7003 14.2476 13.5238 13.9268 13.5238ZM13.8626 16.7805C13.8626 17.1816 13.7342 17.3901 13.4936 17.3901C13.3652 17.3901 13.2209 17.3259 13.0766 17.1816V14.4543C13.237 14.3099 13.3652 14.2457 13.4936 14.2457C13.7342 14.2457 13.8626 14.4543 13.8626 14.8554V16.7805Z" fill="#161817"/>
<path d="M10.7483 16.9896C10.5878 17.2463 10.4114 17.3586 10.2509 17.3586C10.1386 17.3586 10.0905 17.2944 10.0584 17.1821V13.5564H9.24023V17.0858C9.24023 17.4067 9.27228 17.6152 9.30437 17.7436C9.40063 17.9842 9.57712 18.0805 9.83381 18.0805C10.1386 18.0805 10.4435 17.904 10.7643 17.535V18.0163H11.5665V13.5564H10.7643L10.7483 16.9896Z" fill="#161817"/>
<path d="M11.4724 9.44936C11.7451 9.44936 11.8734 9.24081 11.8734 8.82369V6.93065C11.8734 6.51353 11.7451 6.30498 11.4724 6.30498C11.1996 6.30498 11.0713 6.51353 11.0713 6.93065V8.82369C11.0713 9.24081 11.1996 9.4654 11.4724 9.4654" fill="#161817"/>
<mask id="mask0_442_2376" style="mask-type:luminance" maskUnits="userSpaceOnUse" x="0" y="0" width="24" height="24">
<path d="M0 0H24V24H0V0Z" fill="white"/>
</mask>
<g mask="url(#mask0_442_2376)">
<path d="M12 0C13.5758 -2.34822e-08 15.1363 0.31039 16.5922 0.913447C18.0481 1.5165 19.371 2.40042 20.4853 3.51472C21.5996 4.62902 22.4835 5.95189 23.0866 7.4078C23.6896 8.86371 24 10.4241 24 12C24 13.5759 23.6896 15.1363 23.0866 16.5922C22.4835 18.0481 21.5996 19.371 20.4853 20.4853C19.371 21.5996 18.0481 22.4835 16.5922 23.0866C15.1363 23.6896 13.5758 24 12 24C8.81737 24 5.76518 22.7357 3.51474 20.4853C1.26431 18.2348 0 15.1826 0 12C0 8.8174 1.26431 5.76516 3.51474 3.51472C5.76518 1.26428 8.81737 0 12 0ZM13.3315 9.17647C13.3315 9.49733 13.3636 9.72193 13.4117 9.85027C13.492 10.0749 13.6685 10.1872 13.9412 10.1872C14.23 10.1872 14.5508 10.0107 14.8717 9.64171V10.123H15.6738V5.61497H14.8717V9.06417C14.6952 9.32086 14.5187 9.4492 14.3583 9.4492C14.246 9.4492 14.1818 9.38503 14.1658 9.25668V5.61497H13.3315V9.17647ZM10.2514 8.64706C10.2514 9.12834 10.3315 9.48129 10.508 9.70588C10.7326 10.0267 11.0375 10.1872 11.4546 10.1872C11.8556 10.1872 12.1764 10.0267 12.401 9.70588C12.5615 9.48129 12.6417 9.12834 12.6417 8.64706V7.07487C12.6417 6.59358 12.5615 6.24064 12.401 6.01604C12.2911 5.86647 12.1454 5.74694 11.9772 5.66844C11.809 5.58995 11.6237 5.55501 11.4385 5.56684C11.0374 5.56684 10.7326 5.72727 10.508 6.01604C10.3315 6.24064 10.2514 6.59358 10.2514 7.07487V8.64706ZM7.10694 4.07487L7.68446 5.75936C7.97323 6.59358 8.1658 7.23529 8.24601 7.66845V10.107H9.1444V7.66845L10.2353 4.07487H9.32085L8.71122 6.4492L8.06957 4.07487H7.10694ZM18.4492 18.4171C18.6411 17.3752 18.7164 16.3152 18.6738 15.2567C18.6738 14.2139 18.6738 13.107 18.4492 12.0963C18.2888 11.3904 17.7112 10.861 17.0053 10.7808C15.3529 10.6043 13.6684 10.6043 12 10.6043C10.3315 10.6043 8.63099 10.6043 6.99463 10.7808C6.28875 10.861 5.71127 11.3904 5.55084 12.0963C5.35397 13.1376 5.27323 14.1975 5.31016 15.2567C5.31016 16.2995 5.31018 17.4064 5.53478 18.4171C5.69521 19.123 6.28873 19.6524 6.97857 19.7326C8.64702 19.9091 10.3155 19.9251 12 19.9091C13.6684 19.9091 15.3369 19.9091 17.0053 19.7326C17.6951 19.6524 18.2888 19.123 18.4492 18.4171Z" fill="#161817"/>
</g>
<path d="M16.4917 13.5237C16.0746 13.5237 15.7537 13.6841 15.5291 13.9889C15.3526 14.2135 15.2725 14.5504 15.2725 15.0317V16.6039C15.2725 17.0852 15.3526 17.4221 15.5291 17.6467C15.7697 17.9676 16.0906 18.1119 16.5077 18.1119C16.7879 18.1268 17.0634 18.0362 17.2802 17.8581C17.4969 17.6799 17.6392 17.4271 17.6789 17.1494L17.6949 16.62V16.4916H16.8767L16.8607 17.0531C16.8126 17.2617 16.7003 17.374 16.4917 17.374C16.219 17.374 16.0746 17.1654 16.0746 16.7483V15.9462H17.6949V15.0317C17.6949 14.5504 17.6147 14.2135 17.4382 13.9729C17.3288 13.8267 17.1855 13.7094 17.0206 13.6312C16.8556 13.5529 16.6741 13.516 16.4917 13.5237ZM16.9088 15.3045H16.0746V14.8873C16.0746 14.4542 16.219 14.2456 16.4917 14.2456C16.7645 14.2456 16.9088 14.4542 16.9088 14.8873V15.3045Z" fill="#161817"/>
</svg>
