<svg width="76" height="32" viewBox="0 0 76 32" fill="none" xmlns="http://www.w3.org/2000/svg">
<path d="M32.6791 26.2064V0.786079C32.8616 -0.634853 27.393 0.368923 26.8129 0.0821299C24.8575 -0.0547488 26.7542 30.4236 26.1089 31.1275C25.5419 32.3008 35.9838 32.2486 35.4167 31.1275C35.4688 25.0658 35.7296 28.4225 32.6791 26.2064Z" fill="#161817"/>
<path d="M22.7081 31.8763C22.1671 31.5374 16.542 32.5738 16.7245 31.2571C17.2981 30.6379 15.6034 0.00313769 17.3763 0.12698C17.9173 0.465918 23.5424 -0.570449 23.3599 0.778784C22.7537 1.36541 24.4484 32.0002 22.7081 31.8763Z" fill="#161817"/>
<path d="M6.10716 0.08753C5.45535 0.446022 -0.306593 -0.727223 0.0127906 0.863178L3.27181 31.2046C3.38261 32.3388 11.6996 32.1888 11.8104 31.2046L15.0695 0.863178C15.3888 -0.688114 9.58778 0.38736 8.97509 0.08753C6.85021 0.08753 9.68555 20.9452 7.56068 20.9452C5.4358 20.9452 8.219 0.133156 6.10716 0.08753Z" fill="#161817"/>
<path d="M69.1339 31.8763C69.6749 31.5374 75.2999 32.5738 75.1174 31.2571C74.5438 30.6379 76.2385 0.00313769 74.4656 0.12698C73.9246 0.465918 68.2996 -0.570449 68.4821 0.778784C69.0687 1.36541 67.374 32.0002 69.1339 31.8763Z" fill="#161817"/>
<path d="M57.8825 0.08753C57.2633 0.446022 51.4687 -0.727223 51.7881 0.863178L55.0471 31.2046C55.1579 32.3388 63.4749 32.1888 63.5857 31.2046L66.8448 0.863178C67.1641 -0.688114 61.3631 0.38736 60.7504 0.08753C58.6255 0.08753 61.4609 20.9452 59.336 20.9452C57.2111 20.9452 60.0139 0.133156 57.8825 0.08753Z" fill="#161817"/>
<path d="M46.2795 31.8308C46.8922 31.4919 52.6932 32.626 52.3739 31.0552L49.1148 0.713731C49.2908 -0.589875 41.8342 0.374794 41.2932 0.061928C39.5724 -0.153167 37.9625 30.4164 37.3368 31.0356C37.1477 32.3392 44.1677 32.2089 44.1351 31.1073C44.4023 30.4555 43.4311 25.6517 44.8912 25.8408C46.7553 26.0754 44.3632 31.6223 46.2795 31.8308ZM44.096 20.0984C43.8809 19.062 43.3399 10.6537 44.7999 10.9731C45.9601 10.1193 45.015 24.6219 44.096 20.0984Z" fill="#161817"/>
</svg>
