<svg width="1063" height="272" viewBox="0 0 1063 272" fill="none" xmlns="http://www.w3.org/2000/svg">
<path fill-rule="evenodd" clip-rule="evenodd" d="M515.601 125.507C578.959 131.138 642.636 132.285 706.156 128.941C741.124 126.965 808.574 121.96 808.574 121.96C762.755 134.709 715.702 142.507 668.221 145.221C432.596 159.134 257.358 100.194 6.00166 160.877C176.414 103.541 339.664 107.837 515.601 125.507Z" fill="#FFEEED"/>
<path fill-rule="evenodd" clip-rule="evenodd" d="M738.296 159.334C771.998 152.155 816.426 144.808 845.755 148.71C891.389 154.76 930.498 169.852 975.94 164.913C975.94 164.913 897.029 137.078 851.013 120.269C736.765 78.4926 608.342 39.9057 486.706 69.0862C439.033 80.5531 364.175 97.1774 364.175 97.1774C546.843 23.585 642.827 26.0627 826.162 90.4956C871.403 106.365 933.917 128.071 967.213 135.284C1000.51 142.497 1022.24 145.275 1035.26 142.19C1043.25 140.212 1051.1 137.729 1058.78 134.756C1010.72 191.612 974.096 193.472 905.88 173.396C872.443 163.927 837.728 159.765 803.001 161.064C769.055 161.406 722.454 170.011 691.888 170.687C676.334 171.511 660.741 170.121 645.577 166.559C645.577 166.559 704.593 166.514 738.296 159.334Z" fill="#FFEEED"/>
<path fill-rule="evenodd" clip-rule="evenodd" d="M127.213 156.513C127.213 156.513 106.906 179.608 82.7815 182.735C58.6574 185.863 37.7946 182.688 27.4573 183.033C17.12 183.379 10.1482 183.899 10.1482 183.899C30.7865 172.272 53.8696 165.66 77.5341 164.597C92.5804 163.403 127.213 156.513 127.213 156.513Z" fill="#FFEEED"/>
</svg>
